<svg id="Layer_1" data-name="Layer 1" xmlns="http://www.w3.org/2000/svg" viewBox="0 0 350 186"><defs><style>.cls-2{fill:#fbdb58}</style></defs><path d="M175 182.525a152.132 152.132 0 01-33.515-3.745l-118.44-26.8A25.711 25.711 0 012.9 126.77V59.23a25.712 25.712 0 0120.144-25.21l118.441-26.8a151.872 151.872 0 0167.03 0l118.44 26.8A25.712 25.712 0 01347.1 59.23v67.54a25.711 25.711 0 01-20.143 25.21l-118.441 26.8A152.132 152.132 0 01175 182.525z" fill="#111b1e"/><path class="cls-2" d="M175 6.376a148.961 148.961 0 0132.875 3.673l118.44 26.8A22.948 22.948 0 01344.2 59.23v67.54a22.948 22.948 0 01-17.884 22.382l-118.44 26.8a148.964 148.964 0 01-65.75 0l-118.44-26.8A22.948 22.948 0 015.8 126.77V59.23a22.948 22.948 0 0117.884-22.382l118.44-26.8A148.961 148.961 0 01175 6.377m0-5.801a155.007 155.007 0 00-34.155 3.816l-118.44 26.8A28.597 28.597 0 000 59.23v67.539a28.597 28.597 0 0022.404 28.04l118.441 26.8a154.765 154.765 0 0068.31 0l118.44-26.8A28.597 28.597 0 00350 126.77V59.23a28.597 28.597 0 00-22.404-28.04L209.155 4.39A155.007 155.007 0 00175 .576z"/><path class="cls-2" d="M48.257 75.064c2.805-1.954 4.848-3.61 7.1-4.901a12.033 12.033 0 0116.186 3.273c1.256 1.688 1.783 1.03 2.933.17 3.918-2.925 7.81-5.87 13.237-5.091 6.43.922 10.457 4.696 10.233 11.157-.344 9.912-.167 19.795.332 29.681.106 2.085-.801 2.306-2.497 2.269-4.054-.09-8.116-.15-12.165.02-2.203.092-2.858-.522-2.729-2.781q.603-10.536.79-21.094c.08-4.45-1.958-6.213-5.817-5.54-1.906.333-2.732 1.183-2.782 3.315-.18 7.76.054 15.508.447 23.248.11 2.18-.251 2.959-2.58 2.855-4.168-.185-8.352-.146-12.523-.011-1.956.063-2.408-.631-2.318-2.472.35-7.147.59-14.3.807-21.453.067-2.195-.138-4.411-2.619-5.362-3.413-1.307-6.096.558-6.018 4.243.154 7.273.317 14.548.672 21.812.116 2.38-.295 3.411-2.977 3.253-4.042-.238-8.11-.134-12.164-.029-1.716.044-2.312-.48-2.167-2.224 1.027-12.39.616-24.79.06-37.183-.084-1.859.518-2.566 2.33-2.658 3.571-.18 7.157-.34 10.698-.804 2.728-.356 4.059.272 3.551 3.253a22.246 22.246 0 00-.02 3.054zM207.46 95.443c-6.231-3.607-8.41-9.009-6.767-15.817 1.64-6.797 6.603-14.302 24.12-11.361 7.2 1.208 10.967.426 16.224-1.683 4.03-1.617 4.14-1.497 4.16 2.851.006 1.193-.081 2.393.018 3.577.22 2.643.057 4.812-3.573 4.337-1.527-.2-1.952.553-1.695 2.188 1.814 11.56-7.027 16.717-15.145 17.696-2.589.312-5.233.172-7.851.24-.78.021-1.833-.446-2.095.719-.255 1.132.5 1.815 1.55 1.984 2.94.472 5.89.868 8.837 1.29 2.004.288 4.04.428 6.006.88 4.335.997 8.211 2.759 9.628 7.482 1.455 4.853.239 9.18-3.007 12.965a16.367 16.367 0 01-7.08 4.68 34.744 34.744 0 01-21.783.575 13.897 13.897 0 01-5.585-3.085c-4.484-4.075-4.386-7.686.307-11.316 1.034-.8 2.086-1.578 3.35-2.533-3.148-1.864-5.959-4.061-6.182-7.84-.254-4.293 4.593-4.625 6.563-7.83zm15.48 24.65c2.003-.283 3.889-.94 3.921-3.352.032-2.344-1.88-2.762-3.708-3.05-1.88-.295-4.231-.666-5.65-.825-1.007-.113-3.112-.261-3.676 1.71-.564 1.97-.116 3.822 1.778 4.588a27.553 27.553 0 007.336.928zm2.261-37.009c.101-3.378-1.189-4.677-4.7-4.731-3.672-.057-5.211 1.172-5.294 4.226-.09 3.291 1.404 4.954 4.571 5.09 3.533.153 5.327-1.363 5.423-4.585zm-57.347-8.067c2.877-1.952 5.022-3.667 7.394-4.968 8.689-4.766 17.759.582 17.607 10.409-.147 9.548-.272 19.095.299 28.628.132 2.207-.607 2.599-2.552 2.544-4.173-.12-8.357-.151-12.528.01-2.127.083-2.58-.7-2.488-2.654.34-7.15.582-14.306.767-21.462.076-2.895-.742-5.295-4.299-5.313-2.75-.013-4.433.846-4.256 4.172.393 7.384.36 14.791.762 22.174.143 2.639-.71 3.21-3.151 3.09-4.048-.198-8.115-.126-12.17-.021-1.745.045-2.275-.524-2.138-2.256.98-12.394.38-24.8.088-37.199-.044-1.877.596-2.534 2.383-2.621 3.574-.176 7.156-.357 10.705-.786 2.618-.317 4.152.105 3.598 3.199a21.077 21.077 0 00-.02 3.054zM141.88 96.524c.012 1.725-.56 3.849 2.474 3.521.596-.064.991.475 1.157 1.142.55 2.221-1.815 8.534-3.25 9.641-3.881 2.998-10.164 2.237-12.539-1.711-1.934-3.216-2.97-2.658-5.214-.464-5.406 5.285-10.458 4.9-16.42.761-4.862-3.376-6.523-11.091-3.947-16.508a10.03 10.03 0 017.798-5.633c3.635-.642 7.343-.96 11.005-1.427 2.076-.265 3.599.223 3.319-2.62-.235-2.39-1.577-3.275-3.795-3.358-3.569-.134-6.793 1.085-9.967 2.48-4.413 1.937-4.402 1.96-5.27-2.523-1.626-8.389-1.621-8.372 6.849-10.62a36.79 36.79 0 0117.338-.814c7.958 1.71 11.31 6.125 11.08 14.191-.062 2.145-.634 11.438-.617 13.942zm-15.637.252c.018-.693 0-3.614-2.092-3.746-4.153-.263-5.36 1.224-5.348 3.966.011 2.33 1.172 3.502 3.484 3.475 2.4-.028 3.864-.177 3.956-3.695zm184.212-16.973a267.34 267.34 0 00.218 29.26c.119 1.738-.094 2.636-2.173 2.571-4.41-.136-8.83-.108-13.244-.008-1.702.039-2.312-.453-2.18-2.211 1.443-19.317.288-38.642.074-57.964-.018-1.631.402-2.365 2.12-2.46 4.525-.252 9.049-.571 13.56-.999 2.438-.231 1.991 1.361 1.991 2.744.003 9.663.03 19.413-.366 29.067zm-25.972 16.721c.011 1.725-.56 3.849 2.474 3.521.596-.064.991.475 1.156 1.142.55 2.221-1.74 8.638-3.249 9.641-4.385 2.917-10.164 2.237-12.54-1.711-1.933-3.216-2.97-2.658-5.214-.464-5.405 5.285-10.458 4.9-16.419.761-4.863-3.376-6.523-11.091-3.947-16.508a10.03 10.03 0 017.798-5.633c3.634-.642 7.343-.96 11.004-1.427 2.077-.265 3.6.223 3.32-2.62-.236-2.39-1.577-3.275-3.795-3.358-3.57-.134-6.793 1.085-9.967 2.48-4.413 1.937-4.403 1.96-5.271-2.523-1.625-8.389-1.62-8.372 6.85-10.62a36.79 36.79 0 0117.338-.814c7.958 1.71 11.31 6.125 11.08 14.191-.062 2.145-.634 11.438-.618 13.942zm-15.638.252c.018-.693.001-3.614-2.09-3.746-4.155-.263-5.362 1.224-5.349 3.966.011 2.33 1.171 3.502 3.484 3.475 2.399-.028 3.864-.177 3.955-3.695z"/><path d="M185.866 155.049V142.11h4.264v12.939zm2.126-14.958a2.233 2.233 0 01-1.663-.712 2.314 2.314 0 01-.702-1.692 2.235 2.235 0 01.693-1.663 2.271 2.271 0 011.672-.688 2.296 2.296 0 011.698.675 2.246 2.246 0 01.68 1.676 2.312 2.312 0 01-.695 1.704 2.263 2.263 0 01-1.683.7zm7.01 14.958v-10.07h-2.018v-2.869h2.018v-2.989a4.359 4.359 0 011.2-3.344 5.231 5.231 0 013.65-1.119 6.511 6.511 0 01.825.065c.271.035.558.084.862.144v3.083a3.688 3.688 0 00-.302-.078 2.573 2.573 0 00-.549-.066 1.374 1.374 0 00-1.159.492 2.334 2.334 0 00-.355 1.435v2.377h2.365v2.87h-2.365v10.07zm10.867.518a2.293 2.293 0 01-1.716-.711 2.375 2.375 0 01-.702-1.746 2.342 2.342 0 01.695-1.731 2.307 2.307 0 011.723-.7 2.362 2.362 0 011.757.7 2.331 2.331 0 01.7 1.73 2.424 2.424 0 01-2.457 2.458zm12.819 0a9.656 9.656 0 01-3.026-.426 5.668 5.668 0 01-2.162-1.274 4.37 4.37 0 01-1.16-1.834 11.633 11.633 0 01-.347-3.307v-6.616h4.038v6.922a4.324 4.324 0 00.605 2.58 2.805 2.805 0 004.004.013 4.35 4.35 0 00.599-2.593v-6.922h4.144v6.616a11.271 11.271 0 01-.353 3.292 4.638 4.638 0 01-1.169 1.852 5.32 5.32 0 01-2.126 1.27 9.776 9.776 0 01-3.047.427zm15.559.005a5.078 5.078 0 01-4.113-1.875 7.856 7.856 0 01-1.553-5.103 7.491 7.491 0 011.626-5.06 5.5 5.5 0 014.346-1.85 4.81 4.81 0 012.481.617 5.125 5.125 0 011.802 1.897l.445.753v-2.836h3.886v12.93h-3.857v-2.72l-.438.654a6.136 6.136 0 01-2.016 1.973 5.305 5.305 0 01-2.61.62zm.92-9.965a2.777 2.777 0 00-3.016 3.083 2.744 2.744 0 002.852 2.957 2.892 2.892 0 003.206-3.072 2.838 2.838 0 00-2.934-2.967z" fill="#fff"/></svg>