<svg width="70" height="70" viewBox="0 0 70 70" fill="none" xmlns="http://www.w3.org/2000/svg"><path d="M21.5 70c-.1 0-.2 0-.3-.1L.3 58c-.2-.1-.3-.3-.3-.5V36.4c0-.1 0-.2.1-.2v-.1s.1-.1.2-.1h.1l22.3-6 12.9-15.5c1.3-1.6 3.3-2.5 5.4-2.5 1.1 0 2.1.2 3 .7l5.1 2.5 1.8-4.4c.1-.2.2-.3.3-.3l1.8-.9v-.5c0-.6.3-1.2.7-1.5L62.1.9c.7-.6 1.6-.9 2.5-.9H66c2.2 0 4 1.8 4 4 0 1.8-1.2 3.4-2.9 3.8l-11.5 3.3c-.2 0-.4.1-.6.1-.4 0-.7-.1-1-.3l-.4-.3-1.6.8-1.7 4.3L62 21.6c1.3.7 2.1 2 2.1 3.4 0 1-.4 2-1.2 2.7l-.9.8 7.7 4.4.1.1.1.1.1.1v21.1c0 .3-.2.5-.4.6L21.7 70h-.2zm.6-21.1v19.7L68.8 54V34.3L22.1 48.9zM1.2 57.1L21 68.4V48.8L1.2 37.5v19.6zm.9-20.4l19.5 11.1L68 33.4 60.3 29 53 30.8l.5 1c.1.2.1.4 0 .6-.1.2-.3.3-.5.3-.1 0-.2 0-.3-.1l-2-1.2-8.2 2.1 1.9 1.1c.3.2.4.5.2.8-.1.2-.3.3-.5.3-.1 0-.2 0-.3-.1l-2.9-1.7-8.3 2.1 2.8 1.7c.1.1.2.2.3.4 0 .2 0 .3-.1.4-.1.2-.3.3-.5.3-.1 0-.2 0-.3-.1l-3.7-2.2-8.3 2.1 3.6 2.2c.1.1.2.2.3.4 0 .2 0 .3-.1.4-.1.2-.3.3-.5.3-.1 0-.2 0-.3-.1L21.2 39l-5.4 1.4h-.1c-.2 0-.4-.1-.5-.3-.1-.2-.1-.5 0-.7l6.3-7.6-19.4 4.9zM41 13.1c-1.7 0-3.4.8-4.4 2.1L17.1 38.5 60 27.8h.1l.7-.2c1.2-.3 2-1.3 2-2.5 0-1-.6-1.9-1.5-2.3L49.7 17l-.7 1.8c0 .1-.1.2-.2.3l-15 9c-.1.1-.2.1-.3.1-.2 0-.4-.1-.5-.3-.2-.3-.1-.6.2-.8l14.8-9 .7-1.8-5.2-2.6c-.7-.3-1.6-.6-2.5-.6zM55.3 10l11.5-3.3c1.2-.3 2-1.5 2-2.7 0-1.6-1.3-2.8-2.8-2.8h-1.4c-.6 0-1.3.2-1.8.6l-8.4 6.8.5.7.1.1.3.6z" fill="#EBB25B"/></svg>