<svg width="61" height="60" viewBox="0 0 61 60" fill="none" xmlns="http://www.w3.org/2000/svg"><path d="M7.632 59.988a4.612 4.612 0 01-4.608-4.608V33.935c0-.297.239-.535.536-.535.298 0 .536.238.536.535v21.457a3.532 3.532 0 003.525 3.524h11.526V41.294a4.612 4.612 0 014.608-4.608h12.443a4.612 4.612 0 014.608 4.608v13.074a.534.534 0 01-.536.536.534.534 0 01-.536-.536V41.294a3.532 3.532 0 00-3.524-3.525H23.755a3.532 3.532 0 00-3.525 3.525v17.623h9.204v-16.48c0-.298.239-.536.536-.536.298 0 .536.238.536.536v16.48H52.32a3.532 3.532 0 003.524-3.525V33.935c0-.297.239-.535.536-.535.298 0 .536.238.536.535v21.457A4.612 4.612 0 0152.308 60H7.632v-.012zM52.07 29.982a7.897 7.897 0 01-6.942-4.132l-.417-.762-.416.762c-1.406 2.584-4.001 4.132-6.942 4.132s-5.537-1.548-6.942-4.132l-.417-.762-.417.762c-1.405 2.584-4 4.132-6.942 4.132-2.94 0-5.536-1.548-6.953-4.132l-.417-.774-.417.774c-1.393 2.548-4.048 4.144-6.942 4.144-4.346 0-7.894-3.548-7.906-7.906v-3.584c0-1.905 0-2.775.024-2.882.012-.024.012-.036.024-.06L6.656.323a.522.522 0 01.5-.322h45.712c.214 0 .404.131.5.321 1.667 3.846 2.917 6.74 3.87 8.907 2.012 4.632 2.726 6.275 2.786 6.549 0 .024-.012.048-.012.071a.603.603 0 01-.203.358c-.011.012-.035.023-.047.035-.488.072-3.203.084-10.8.084H38.21c-7.359 0-17.444-.012-31.054-.012a.534.534 0 01-.536-.536c0-.298.239-.536.536-.536h51.498l-6.167-14.17H7.477L1.06 15.885v6.192c0 3.762 3.072 6.823 6.823 6.823 3.762 0 6.822-3.084 6.822-6.87 0-.299.238-.537.536-.537.298 0 .536.238.536.536 0 3.787 3.06 6.87 6.823 6.87a6.83 6.83 0 006.822-6.822c0-.298.239-.536.536-.536.298 0 .536.238.536.536a6.83 6.83 0 006.823 6.823 6.83 6.83 0 006.823-6.823c0-.298.238-.536.535-.536.298 0 .536.238.536.536a6.83 6.83 0 006.823 6.823 6.83 6.83 0 006.823-6.823c0-.298.238-.536.536-.536.297 0 .536.238.536.536.047 4.358-3.501 7.906-7.86 7.906z" fill="#EBB25B"/></svg>