<svg width="120" height="120" viewBox="0 0 120 120" fill="none" xmlns="http://www.w3.org/2000/svg"><path d="M52.131 88.525l62.951-78.689L83.607 120 52.13 88.525zm-15.737-7.869L4.918 64.918 115.082 9.836l-78.688 70.82z" fill="#EBB25B"/><path d="M4.13 55.279L114.296.197h.196l.197-.197h.787c.197 0 .197 0 .394.197h.393l.197.196.196.197v.197c0 .197.197.197.197.393v.394c.197.196.197.393.197.393v.59L85.573 112.721c-.196.59-.786 1.181-1.377 1.377h-.59c-.59 0-.983-.196-1.377-.59L60.393 91.672l-14.36 21.639c-.197.197-.197.394-.394.394h-.197c-.196 0-.196.197-.393.197h-1.377s-.197 0-.197-.197c0 0-.197 0-.197-.197l-.393-.393s0-.197-.197-.197c-.197-.197-.197-.393-.197-.59l-7.672-38.36L4.131 58.622c-.59-.393-1.18-.984-1.18-1.77 0-.787.393-1.18 1.18-1.574zm40.329 47.803l5.705-22.82c0-.196.196-.393.196-.59v-.197l48.197-60-60 53.902 5.902 29.705zm38.164 5.311l27.934-97.573-55.672 69.639 27.738 27.934zM53.114 84.59l-4.328 17.115 8.46-12.787-4.132-4.328zM36 70.426l66.885-60.197-93.64 46.82L36 70.426zm77.114-21.639c.197-.984 1.377-1.77 2.361-1.377.983.197 1.77 1.377 1.377 2.36l-7.869 31.476c0 .787-.984 1.377-1.771 1.377h-.393c-.984-.197-1.771-1.377-1.377-2.36l7.672-31.476zM82.819.197c.983-.394 2.163 0 2.557.787.393.983 0 2.164-.787 2.557L68.851 11.41c-.393.393-.59.393-.983.393-.787 0-1.377-.393-1.77-1.18-.394-.984 0-2.164.786-2.557L82.82.196z" fill="#000"/><path d="M26.345 94.213c-.394.394-.984.59-1.377.59-.394 0-.984-.196-1.377-.59-.787-.787-.787-1.967 0-2.754l7.868-7.869c.787-.787 1.968-.787 2.755 0 .786.787.786 1.967 0 2.754l-7.87 7.87zm7.869 8.131l-7.87 7.869c-.393.394-.983.59-1.376.59-.394 0-.984-.196-1.377-.59-.787-.787-.787-1.967 0-2.754l7.868-7.869c.787-.787 1.968-.787 2.755 0 .786.787.786 1.967 0 2.754zM19.278 79.59c.787-.787 1.967-.787 2.754 0 .787.787.787 1.967 0 2.754L6.294 98.082c-.393.393-.983.59-1.377.59-.393 0-.983-.197-1.377-.59-.787-.787-.787-1.967 0-2.754L19.278 79.59z" fill="#000"/></svg>