<svg width="45" height="29" viewBox="0 0 45 29" fill="none" xmlns="http://www.w3.org/2000/svg"><path d="M24.638 27.52l-.918-.396-.603 1.396h1.521v-1zm11.4-26.4v-1h-.657l-.26.604.917.396zm6.96 0l.98.205.251-1.205H43v1zm-5.52 26.4v1h.813l.166-.795-.979-.205zm-35.4 0l-.918-.396-.603 1.396h1.521v-1zm11.4-26.4v-1h-.657l-.26.604.917.396zm6.96 0l.98.205.251-1.205h-1.23v1zm-5.52 26.4v1h.813l.166-.795-.979-.205zm10.639.396l11.4-26.4L35.12.724l-11.4 26.4 1.837.792zM36.038 2.12h6.96v-2h-6.96v2zM42.02.915l-5.52 26.4 1.957.41 5.52-26.4-1.957-.41zM37.478 26.52h-12.84v2h12.84v-2zM2.996 27.916l11.4-26.4L12.56.724l-11.4 26.4 1.837.792zM13.478 2.12h6.96v-2h-6.96v2zM19.46.915l-5.52 26.4 1.957.41 5.52-26.4-1.957-.41zM14.918 26.52H2.078v2h12.84v-2z" fill="#EBB25B"/></svg>