<svg width="52" height="70" viewBox="0 0 52 70" fill="none" xmlns="http://www.w3.org/2000/svg"><path d="M32.4 70c-.4 0-.7-.2-.9-.6l-4-9.5c-.1-.2-.1-.3 0-.5s.2-.3.3-.3h.2c.3 0 .5.2.6.4l3.7 8.9 3-5.4c.3-.6.9-.9 1.5-.9.2 0 .3 0 .5.1l5.9 1.7-7.7-18.4h-.3c-.7.1-1.4.4-2 .9l-4 3.3c-.2.2-.5.4-.7.5l-.1.1-8 19.2c-.1.3-.4.5-.8.5h-.1c-.4 0-.7-.2-.8-.5l-3.3-6c-.1-.2-.2-.2-.4-.2h-.1l-6.6 1.9H8c-.3 0-.5-.1-.7-.3-.2-.3-.3-.7-.2-1L15 45.3l-3.7-.4c-2.5-.2-4.5-2.2-4.7-4.7L6 35c-.1-.8-.4-1.5-.9-2.2l-3.3-4C.2 26.9.2 24 1.8 22.1l3.3-4c.5-.6.8-1.4.9-2.2l.5-5.2c.2-2.5 2.2-4.5 4.7-4.7l5.2-.5c.8-.2 1.6-.5 2.2-1l4-3.3C23.6.4 24.8 0 26 0c1.2 0 2.4.4 3.4 1.2l4 3.3c.6.5 1.4.8 2.2.9l5.2.5c2.5.2 4.5 2.2 4.7 4.7l.5 5.2c.1.8.4 1.5.9 2.2l3.3 4c1.6 1.9 1.6 4.8 0 6.7l-3.3 4c-.5.6-.8 1.4-.9 2.2l-.5 5.2c-.2 2.5-2.2 4.5-4.7 4.7l-3.8.5 7.8 18.6c.1.3.1.7-.2 1-.2.2-.4.3-.7.3h-.3L37 63.3h-.1c-.2 0-.3.1-.4.2l-3.3 6c-.1.3-.4.5-.8.5zm-17.3-8c.6 0 1.2.3 1.5.9l3 5.4 7.3-17.5H26c-1.2 0-2.4-.4-3.4-1.2l-4-3.3c-.6-.5-1.2-.8-2-.9h-.3L8.6 63.8l5.9-1.7c.2-.1.4-.1.6-.1zM26 1.3c-.9 0-1.8.3-2.5.9l-4 3.3c-.8.7-1.8 1.1-2.8 1.2l-5.2.5c-1.9.2-3.4 1.7-3.6 3.6L7.3 16c-.1 1.1-.5 2-1.2 2.8l-3.3 4c-1.2 1.5-1.2 3.6 0 5.1l3.3 4c.7.8 1.1 1.8 1.2 2.8l.5 5.2c.2 1.9 1.7 3.4 3.6 3.6l4.6.4.6.1c1 .1 2 .5 2.8 1.2l4 3.3c.7.6 1.6.9 2.5.9.9 0 1.8-.3 2.5-.9l4-3.3c.8-.7 1.8-1.1 2.8-1.2l.6-.1 4.6-.4c1.9-.2 3.4-1.7 3.6-3.6l.5-5.2c.1-1 .5-2 1.2-2.8l3.3-4c1.2-1.5 1.2-3.6 0-5.1l-3.3-4c-.5-.8-.9-1.8-1-2.8l-.5-5.2c-.2-1.9-1.7-3.4-3.6-3.6l-5.2-.5c-1-.1-2-.5-2.8-1.2l-4-3.3c-.8-.6-1.7-.9-2.6-.9z" fill="#EBB25B"/><path d="M26 41.4c-8.8 0-16-7.2-16-16 0-6.3 3.7-12 9.4-14.6.1 0 .2-.1.3-.1.2 0 .5.1.6.4.1.2.1.3 0 .5s-.2.3-.3.4c-5.3 2.4-8.7 7.6-8.7 13.4 0 8.1 6.6 14.7 14.7 14.7s14.7-6.6 14.7-14.7S34.1 10.7 26 10.7c-.6 0-1.3 0-1.9.1H24c-.3 0-.6-.2-.6-.6 0-.2 0-.3.1-.5.1-.1.3-.2.4-.2.7-.1 1.4-.1 2-.1 8.8 0 16 7.2 16 16 .1 8.8-7.1 16-15.9 16z" fill="#EBB25B"/><path d="M23.3 33.9c-.7 0-1.4-.3-2-.8l-4.6-4.6c-1.1-1.1-1.1-2.9 0-4 .5-.5 1.2-.8 2-.8s1.5.3 2 .8l2.6 2.6 8-8c.5-.5 1.2-.8 2-.8.7 0 1.5.3 2 .8 1.1 1.1 1.1 2.9 0 4l-10 10c-.6.5-1.3.8-2 .8zm-4.6-9c-.4 0-.8.2-1.1.4-.6.7-.6 1.7 0 2.3l4.6 4.6c.3.3.7.4 1.1.4.4 0 .8-.2 1.1-.4l10-10c.3-.3.4-.7.4-1.1 0-.4-.2-.8-.4-1.1-.3-.3-.7-.4-1.1-.4-.4 0-.8.2-1.1.4l-8.5 8.5c-.1.1-.3.2-.4.2-.2 0-.3-.1-.4-.2l-3.1-3.1c-.3-.3-.7-.5-1.1-.5z" fill="#EBB25B"/></svg>