<svg xmlns="http://www.w3.org/2000/svg"><symbol id="icon-facebook" viewBox="0 0 15 28"><path d="M12.443 4.623H15V.174L11.165 0C6.989 0 4.432 2.617 4.432 6.978v4.187H0v4.972h4.432V28H9.63V16.137h4.602l.596-4.797v-.175H9.631V7.502c0-1.483.34-2.879 2.812-2.879z" fill="#fff"/></symbol><symbol id="icon-telegram" viewBox="0 0 25 21"><path d="M24.917 1.943l-3.773 17.774c-.276 1.29-1.012 1.566-2.024 1.013l-5.798-4.236-2.76 2.67a1.475 1.475 0 01-1.197.553l.46-5.894L20.5 4.245c.46-.46-.184-.644-.736-.276l-13.16 8.289-5.706-1.75c-1.196-.369-1.288-1.198.276-1.842L23.353.1c1.012-.368 1.932.276 1.564 1.842z" fill="#fff"/></symbol><symbol id="icon-viber" viewBox="0 0 35 35"><path d="M19.778 22.572a17.527 17.527 0 01-6.108-4.09 16.348 16.348 0 01-2.335-3.556l-.808-1.778a1.76 1.76 0 01.539-1.6 2.78 2.78 0 011.257-.979.816.816 0 01.988.267l1.527 2.134a1.058 1.058 0 01-.27 1.422l-.359.267-.27.267a.793.793 0 000 .622 5.77 5.77 0 001.228 2.125 5.835 5.835 0 002.006 1.432c.264.18.578.273.899.267.449-.09.628-.623.988-.979a.994.994 0 011.167 0l1.078.712 1.078.8a.716.716 0 01.36.713.705.705 0 01-.09.265 3.48 3.48 0 01-1.527 1.69l-.63.177-.718-.178zm4.251-5.947h-.095c-.282 0-.377-.262-.377-.524v-.787a4.607 4.607 0 00-.472-1.861 4.926 4.926 0 00-1.206-1.55 5.36 5.36 0 00-1.753-1.005 5.655 5.655 0 00-2.035-.305h-.848c-.283.087-.565-.088-.565-.262a.33.33 0 01.01-.373.371.371 0 01.16-.125.403.403 0 01.207-.027l.942-.175a6.664 6.664 0 012.424.346 6.322 6.322 0 012.091 1.188 5.805 5.805 0 011.434 1.845c.342.697.53 1.45.554 2.216v.874c-.094.35-.283.525-.471.525z" fill="#fff"/><path d="M22.313 16.621h-.088a.325.325 0 01-.192-.03.36.36 0 01-.148-.136.405.405 0 01-.01-.406c-.045-1.02-.455-1.98-1.142-2.674-.687-.695-1.596-1.07-2.533-1.043h-.175c-.262.095-.438-.095-.525-.381a.807.807 0 01.113-.332.725.725 0 01.237-.24h.262a4.133 4.133 0 011.722.296c.55.22 1.056.558 1.486.992.43.434.779.956 1.024 1.536.246.58.383 1.208.406 1.846v.286a.639.639 0 01-.19.195.58.58 0 01-.247.091z" fill="#fff"/><path d="M20.5 15.75a.586.586 0 01-.322-.087.396.396 0 01-.178-.231c-.048-.402-.277-.776-.644-1.054A2.397 2.397 0 0018 13.92a.572.572 0 01-.354-.116.362.362 0 01-.146-.281c0-.16.2-.319.5-.398.749.033 1.46.274 2.008.68.548.408.9.955.992 1.547a.362.362 0 01-.146.281.572.572 0 01-.354.117z" fill="#fff"/><path d="M21.558 3.5h-8.116c-2.637 0-5.166 1.01-7.03 2.81C4.547 8.108 3.5 10.548 3.5 13.092v5.384a9.37 9.37 0 001.875 5.61 9.926 9.926 0 004.922 3.493v2.74c-.001.24.073.473.213.67.14.198.34.349.571.434.232.085.485.1.725.043.24-.058.458-.184.622-.364l3.043-3.034h6.087c2.637 0 5.166-1.01 7.03-2.81 1.864-1.798 2.912-4.238 2.912-6.782v-5.384c0-2.544-1.047-4.984-2.912-6.782-1.864-1.8-4.393-2.81-7.03-2.81zm7.507 14.682c0 .985-.202 1.96-.596 2.87a7.43 7.43 0 01-1.698 2.425 7.74 7.74 0 01-2.536 1.606 7.954 7.954 0 01-2.981.538h-4.667a.103.103 0 00-.072.029.096.096 0 00-.03.069l-1.42 1.37-.811.881h-.203l-2.232 2.251a.31.31 0 01-.317.055.303.303 0 01-.132-.099.287.287 0 01-.058-.151v-4.894a7.273 7.273 0 01-4.058-3.035.494.494 0 01-.203-.391l-.203-.294a7.32 7.32 0 01-.812-3.328v-4.698a7.7 7.7 0 01.812-3.328c.099-.217.236-.416.406-.587a7.391 7.391 0 012.761-2.594 7.723 7.723 0 013.731-.93h7.508a7.958 7.958 0 012.981.538 7.74 7.74 0 012.536 1.606 7.43 7.43 0 011.698 2.425c.394.91.596 1.885.596 2.87v4.796z" fill="#fff"/></symbol></svg>